<?xml version="1.0" standalone="no"?>
<!DOCTYPE svg PUBLIC "-//W3C//DTD SVG 20010904//EN"
 "http://www.w3.org/TR/2001/REC-SVG-20010904/DTD/svg10.dtd">
<svg version="1.0" xmlns="http://www.w3.org/2000/svg"
 width="722.000000pt" height="722.000000pt" viewBox="0 0 722.000000 722.000000"
 preserveAspectRatio="xMidYMid meet">
<metadata>
Created by potrace 1.14, written by Peter Selinger 2001-2017
</metadata>
<g transform="translate(0.000000,722.000000) scale(0.100000,-0.100000)"
fill="#000000" stroke="none">
<path d="M3859 6644 c-6 -7 -17 -10 -25 -7 -20 8 -62 -14 -100 -52 -17 -17
-36 -29 -42 -27 -6 2 -17 -8 -23 -21 -6 -14 -20 -28 -30 -30 -10 -3 -23 -16
-28 -30 -5 -14 -14 -28 -20 -31 -5 -4 -8 -17 -5 -30 2 -13 -2 -39 -10 -57 -24
-57 -2 -364 31 -435 24 -51 131 -204 143 -204 6 0 10 -28 10 -63 l0 -62 -112
-39 c-461 -157 -986 -404 -1429 -671 -227 -137 -491 -317 -659 -448 -41 -32
-91 -70 -110 -85 -33 -26 -153 -126 -176 -147 -6 -5 -47 -41 -90 -80 -83 -73
-351 -339 -419 -416 -153 -173 -344 -427 -430 -574 -62 -105 -77 -133 -130
-241 -304 -618 -269 -1173 98 -1547 102 -104 299 -238 412 -278 19 -7 36 -18
36 -24 1 -5 2 -118 3 -250 l1 -240 2900 0 2900 0 0 478 0 477 -1062 0 c-585 0
-1063 3 -1064 8 0 4 -2 17 -5 28 -3 19 14 31 124 87 110 56 217 115 377 206
91 52 270 165 273 173 2 4 7 8 12 8 10 0 218 140 315 212 50 37 251 193 255
197 3 4 21 18 40 32 19 15 46 37 60 49 14 12 54 47 90 78 182 158 465 444 551
557 13 17 26 32 29 35 17 14 164 207 222 290 198 288 341 593 398 850 10 47
22 99 25 115 4 17 9 102 11 190 4 172 -11 277 -57 407 -106 301 -355 545 -699
682 -52 21 -104 42 -115 47 -54 23 -283 76 -410 94 -22 4 -50 8 -61 10 -160
26 -724 27 -884 1 -14 -2 -51 -7 -84 -11 -32 -4 -68 -8 -80 -10 -132 -21 -191
-31 -236 -40 -14 -2 -38 -7 -55 -10 -16 -3 -39 -7 -50 -9 -11 -3 -54 -12 -95
-21 -41 -9 -86 -19 -99 -21 -14 -3 -29 -8 -35 -12 -6 -3 1 10 16 29 29 39 72
124 82 163 3 14 13 26 21 26 8 0 21 12 28 28 16 31 24 177 9 168 -5 -3 -7 5
-5 17 3 14 -3 30 -16 41 -12 11 -21 27 -21 36 0 9 -9 43 -20 75 -18 52 -18 60
-5 75 8 9 15 22 15 28 0 12 -46 83 -59 92 -4 3 -13 15 -20 28 -6 12 -18 22
-25 22 -8 0 -19 7 -26 15 -7 9 -20 14 -29 13 -9 -2 -21 3 -27 11 -6 8 -20 15
-32 16 -11 0 -26 6 -34 12 -33 26 -220 40 -239 17z"/>
</g>
</svg>
